# xmcd
#
# Track frame offsets: 
#        150
#        11919
#        22821
#        35323
#        49418
#        60384
#        71096
#        84317
#        101496
#        115752
#        127400
#        146048
#        159114
#        168746
#        182142
#        193492
#        206860
#        222464
#        242444
#        254989
#        265738
#        277946
#        293601
#
# Disc length: 4069 seconds
#
# Revision: 5
# Processed by: cddbd v1.5.2PL0 Copyright (c) Steve Scherf et al.
# Submitted via: ExactAudioCopyFreeDBPlugin 1.0
#
DISCID=610fe317
DTITLE=Linda Ronstadt - Best Of The Capitol Years - CD1
DYEAR=2006
DGENRE=Country
TTITLE0=Baby You've Been On My Mind
TTITLE1=Silver Threads And Golden Needles
TTITLE2=Bet No One Ever Hurt This Bad
TTITLE3=A Number And A Name
TTITLE4=The Only Mama That'll Walk The Line
TTITLE5=The Long Way Around
TTITLE6=Break My Mind
TTITLE7=I'll Be Your Baby Tonight
TTITLE8=It's About Time
TTITLE9=We Need A Whole Lot More Of Jesus (And A Lot Less Rock and Roll)
TTITLE10=The Dolphins
TTITLE11=It Won't Be Easy
TTITLE12=Lovesick Blues
TTITLE13=Are My Thoughts With You?
TTITLE14=Will You Love Me Tomorrow?
TTITLE15=Nobody's
TTITLE16=Louise
TTITLE17=Long Long Time
TTITLE18=Mental Revenge
TTITLE19=I'm Leavin' It All Up To You
TTITLE20=He Darked The Sun
TTITLE21=Life Is Like A Mountain Railway
TTITLE22=He Darked The Sun (Nashville Version)
EXTD=
EXTT0=
EXTT1=
EXTT2=
EXTT3=
EXTT4=
EXTT5=
EXTT6=
EXTT7=
EXTT8=
EXTT9=
EXTT10=
EXTT11=
EXTT12=
EXTT13=
EXTT14=
EXTT15=
EXTT16=
EXTT17=
EXTT18=
EXTT19=
EXTT20=
EXTT21=
EXTT22=
PLAYORDER=
